<svg xmlns="http://www.w3.org/2000/svg" xmlns:xlink="http://www.w3.org/1999/xlink" version="1.1" id="Your_Icon" x="0px" y="0px" width="99px" height="78.084px" viewBox="0 0 99 78.084" enable-background="new 0 0 99 78.084" xml:space="preserve">
<g>
	<path d="M98.249,61.602c0.047-0.324,0.071-0.652,0.071-0.981c0-2.446-1.289-4.597-3.225-5.809   c-0.765-17.008-10.939-32.353-26.162-39.743c3.278-0.868,5.701-3.859,5.701-7.407C74.635,3.437,71.199,0,66.974,0   c-3.307,0-6.111,2.061-7.186,4.996c-2.207,1.455-5.199,3.514-7.752,5.561c-1.116-0.08-2.231-0.12-3.334-0.12   c-5.099,0-10.085,0.817-14.86,2.431c-1.926-1.701-4.152-2.992-6.186-4.171c-0.365-0.211-0.721-0.419-1.067-0.622   c-1.097-2.896-3.882-4.922-7.158-4.922c-4.225,0-7.662,3.437-7.662,7.662c0,3.375,2.194,6.248,5.231,7.267   c-0.102,1.236-0.124,2.797,0.352,4.533C7.723,31.41,2.262,43.726,2.262,56.877c0,0.694,0.017,1.375,0.048,2.038   C0.878,60.239,0,62.128,0,64.196c0,1.599,0.521,3.093,1.422,4.299c-0.041,0.304-0.06,0.611-0.06,0.92   c0,3.963,3.224,7.188,7.187,7.188c1.132,0,2.215-0.261,3.185-0.737c4.054,1.927,8.761,2.219,12.644,2.219   c3.346,0,6.962-0.246,10.791-0.508c4.345-0.296,8.837-0.602,13.535-0.602c4.698,0,9.191,0.306,13.536,0.602   c3.831,0.262,7.447,0.508,10.794,0.508c4.604,0,10.188-0.422,14.586-3.315c0.513,0.122,1.045,0.187,1.584,0.187   c2.884,0,5.355-1.79,6.365-4.317c2.05-1.185,3.433-3.4,3.433-5.933C99,63.614,98.734,62.552,98.249,61.602z M78.993,28.856   c0,3.007-2.439,5.445-5.445,5.445c-3.01,0-5.446-2.438-5.446-5.445c0-3.008,2.437-5.446,5.446-5.446   c0.431,0,0.844,0.063,1.243,0.157c1.354,1.062,2.639,2.206,3.853,3.42C78.858,27.572,78.993,28.196,78.993,28.856z M92.152,67.426   c-0.109,0-0.216-0.008-0.321-0.019c0.061,0.224,0.095,0.456,0.095,0.7c0,1.505-1.219,2.722-2.724,2.722   c-0.834,0-1.58-0.376-2.079-0.967C83.98,73.1,79.091,73.96,73.032,73.96c-6.882,0-15.273-1.11-24.33-1.11   c-9.055,0-17.444,1.11-24.325,1.11c-5.446,0-9.948-0.696-13.086-3.187c-0.501,1.009-1.539,1.703-2.742,1.703   c-1.691,0-3.063-1.37-3.063-3.062c0-0.888,0.379-1.685,0.983-2.244c-1.344-0.324-2.344-1.53-2.344-2.975   c0-1.507,1.087-2.754,2.519-3.013c-0.168-1.306-0.256-2.734-0.256-4.307c0-13.414,6.243-25.367,15.979-33.12   c-2.938-4.418,0.369-7.945-1.954-9.547c-0.312,0.091-0.64,0.141-0.981,0.141c-1.954,0-3.537-1.583-3.537-3.536   c0-1.953,1.583-3.537,3.537-3.537c1.911,0,3.463,1.517,3.53,3.412c3.21,2.066,7.414,3.913,9.777,6.989   c4.928-2.008,10.316-3.118,15.964-3.118c1.575,0,3.128,0.089,4.658,0.256c3.151-2.718,7.698-5.747,10.084-7.281   c0.064-1.896,1.618-3.412,3.529-3.412c1.953,0,3.536,1.584,3.536,3.537c0,1.952-1.583,3.536-3.536,3.536   c-0.34,0-0.67-0.05-0.982-0.141c-1.321,0.913-1.768,3.397-2.447,6.185c2.978,1.115,5.795,2.558,8.411,4.281   c-3.378,0.734-5.917,3.742-5.917,7.334c0,4.14,3.369,7.507,7.51,7.507c3.898,0,7.11-2.986,7.472-6.792   c6.234,7.37,9.999,16.896,9.999,27.306c0,0.362-0.005,0.717-0.014,1.064c0.15-0.026,0.308-0.044,0.468-0.044   c1.503,0,2.723,1.22,2.723,2.723c0,0.668-0.243,1.28-0.642,1.753c0.79,0.477,1.321,1.341,1.321,2.332   C94.875,66.208,93.655,67.426,92.152,67.426z"/>
	<path d="M72.865,40.96c-3.076,0-5.578,2.503-5.578,5.578c0,3.079,2.502,5.58,5.578,5.58s5.581-2.501,5.581-5.58   C78.446,43.463,75.941,40.96,72.865,40.96z M72.865,50.056c-1.942,0-3.516-1.574-3.516-3.518c0-1.94,1.573-3.516,3.516-3.516   s3.518,1.575,3.518,3.516C76.383,48.481,74.808,50.056,72.865,50.056z"/>
	<path d="M84.097,51.272c-2.325,0-4.217,1.893-4.217,4.219c0,2.325,1.892,4.216,4.217,4.216c2.327,0,4.22-1.891,4.22-4.216   C88.316,53.165,86.424,51.272,84.097,51.272z M84.097,57.646c-1.19,0-2.155-0.965-2.155-2.154c0-1.191,0.965-2.157,2.155-2.157   c1.192,0,2.157,0.966,2.157,2.157C86.254,56.681,85.289,57.646,84.097,57.646z"/>
</g>
</svg>